<?xml version="1.0" encoding="UTF-8" standalone="no"?>
<!-- Created with Inkscape (http://www.inkscape.org/) -->

<svg
   width="7.9375mm"
   height="7.9375mm"
   viewBox="0 0 7.9375 7.9375"
   version="1.1"
   id="svg5"
   xml:space="preserve"
   inkscape:version="1.2.1 (9c6d41e410, 2022-07-14, custom)"
   sodipodi:docname="clubs.svg"
   xmlns:inkscape="http://www.inkscape.org/namespaces/inkscape"
   xmlns:sodipodi="http://sodipodi.sourceforge.net/DTD/sodipodi-0.dtd"
   xmlns="http://www.w3.org/2000/svg"
   xmlns:svg="http://www.w3.org/2000/svg"><sodipodi:namedview
     id="namedview7"
     pagecolor="#ffffff"
     bordercolor="#000000"
     borderopacity="0.25"
     inkscape:showpageshadow="2"
     inkscape:pageopacity="0.0"
     inkscape:pagecheckerboard="0"
     inkscape:deskcolor="#d1d1d1"
     inkscape:document-units="mm"
     showgrid="false"
     inkscape:zoom="0.74297138"
     inkscape:cx="149.4001"
     inkscape:cy="453.58409"
     inkscape:window-width="1920"
     inkscape:window-height="1015"
     inkscape:window-x="1920"
     inkscape:window-y="0"
     inkscape:window-maximized="1"
     inkscape:current-layer="layer1" /><defs
     id="defs2" /><g
     inkscape:label="Layer 1"
     inkscape:groupmode="layer"
     id="layer1"><path
       style="fill:#000000;stroke-width:0.264583"
       id="path179"
       d="" /><path
       style="fill:#000000;stroke:none;stroke-width:0.0202466"
       d="M 2.6033017,2.7907762 C 2.1929893,2.7139774 1.8049688,2.6845451 1.3947242,2.7856609 1.0580905,2.8686493 0.76467531,3.0230337 0.52273564,3.2303488 -0.31802907,3.950856 -0.11088801,5.1754465 0.90234103,5.7085079 1.6983908,6.1272992 3.1103451,6.0393641 3.5880687,5.2817138 h 0.022381 c 0,0.6361263 -0.1279524,1.2677626 -0.4545368,1.8498936 C 3.0068325,7.3973328 2.6678936,7.6636439 2.5809209,7.9375 H 5.3561722 C 5.2694453,7.664487 4.930126,7.3971132 4.7811806,7.1316074 4.4541697,6.5487276 4.3266432,5.9185721 4.3266432,5.2817138 h 0.022381 C 4.8223153,6.0323315 6.2167903,6.1240396 7.0123713,5.7200852 8.0339319,5.2014013 8.2600916,3.976772 7.435597,3.248665 7.1924264,3.0339318 6.9040905,2.8821845 6.5647492,2.7907894 6.1523334,2.679705 5.7480413,2.713241 5.3337911,2.7907709 5.5873907,2.5830889 5.7639542,2.3577856 5.8703767,2.076455 5.9468977,1.8741219 5.9691668,1.6629774 5.9417948,1.4537193 5.7549795,0.02581408 3.5261177,-0.51871794 2.4122792,0.59287969 2.2365878,0.76820232 2.1131339,0.9775151 2.0466844,1.1972983 1.972939,1.4413376 1.9604729,1.6831801 2.0214834,1.9299287 c 0.083906,0.339337 0.2845306,0.617407 0.5818183,0.8608422 z"
       id="path1050" /></g></svg>
