<?xml version="1.0" encoding="UTF-8" standalone="no"?>
<!-- Created with Inkscape (http://www.inkscape.org/) -->

<svg
   width="90mm"
   height="90mm"
   viewBox="0 0 90 90"
   version="1.1"
   id="svg5"
   xml:space="preserve"
   inkscape:version="1.2.1 (9c6d41e410, 2022-07-14, custom)"
   sodipodi:docname="diamonds.svg"
   xmlns:inkscape="http://www.inkscape.org/namespaces/inkscape"
   xmlns:sodipodi="http://sodipodi.sourceforge.net/DTD/sodipodi-0.dtd"
   xmlns="http://www.w3.org/2000/svg"
   xmlns:svg="http://www.w3.org/2000/svg"><sodipodi:namedview
     id="namedview7"
     pagecolor="#ffffff"
     bordercolor="#000000"
     borderopacity="0.25"
     inkscape:showpageshadow="2"
     inkscape:pageopacity="0.0"
     inkscape:pagecheckerboard="0"
     inkscape:deskcolor="#d1d1d1"
     inkscape:document-units="mm"
     showgrid="false"
     inkscape:zoom="1.0507202"
     inkscape:cx="-15.227651"
     inkscape:cy="113.25565"
     inkscape:window-width="1920"
     inkscape:window-height="1015"
     inkscape:window-x="1920"
     inkscape:window-y="0"
     inkscape:window-maximized="1"
     inkscape:current-layer="layer1" /><defs
     id="defs2" /><g
     inkscape:label="Layer 1"
     inkscape:groupmode="layer"
     id="layer1"
     transform="translate(-50,-100)"><path
       style="fill:#ff2a2a;stroke-width:0.189052"
       d="m 93.617154,189.65489 -0.634155,-0.34416 -0.98014,-1.55385 -0.98014,-1.55392 -1.250544,-1.84451 -1.250543,-1.84451 -1.697722,-2.28364 -1.697714,-2.28371 -1.123703,-1.4053 -1.123704,-1.4053 -2.27039,-2.63719 -2.270391,-2.6372 -1.999208,-2.10584 -1.999208,-2.10585 -2.139944,-2.10795 -2.139947,-2.10803 -4.078873,-3.51583 -4.078872,-3.51593 -2.848368,-2.11444 -2.848369,-2.11437 -2.401053,-1.61462 -2.401054,-1.61461 -0.369893,-0.17131 -0.369894,-0.17131 -0.331661,-0.60385 L 50,145.39379 v -0.4654 -0.46541 l 0.311009,-0.51938 0.311006,-0.51938 0.760261,-0.41457 0.760259,-0.41457 2.438362,-1.63981 2.438369,-1.6398 2.33973,-1.75526 2.33973,-1.75534 2.72567,-2.29396 2.725668,-2.29396 2.240613,-2.02019 2.240603,-2.0202 2.269106,-2.28363 2.269104,-2.28372 1.62965,-1.75666 1.629641,-1.75667 1.721575,-2.02012 1.721575,-2.02018 1.744098,-2.19588 1.744096,-2.1958 1.522723,-2.10802 1.522723,-2.10796 1.540832,-2.31742 1.540823,-2.31736 0.130092,-0.35356 0.130093,-0.35354 0.605436,-0.43961 0.605436,-0.43959 0.702281,-0.11342 0.70228,-0.11342 0.765243,0.3426 0.765243,0.34261 1.651275,2.56593 1.651285,2.56601 1.49088,2.0726 1.49089,2.07267 1.62377,2.10797 1.62377,2.10802 1.92434,2.27957 1.92434,2.27957 2.27617,2.46347 2.27619,2.46338 2.20784,2.19588 2.20784,2.19579 4.69668,4.04484 4.69668,4.04484 2.6211,1.92664 2.62111,1.92664 2.77045,1.85367 2.77045,1.85358 0.2908,0.71806 0.29081,0.71806 -0.29335,0.66566 -0.29333,0.66564 -1.84636,1.15532 -1.84636,1.15531 -1.60985,1.13482 -1.60984,1.13482 -3.25527,2.4863 -3.25528,2.48622 -3.357,2.9665 -3.35701,2.96642 -2.31672,2.28364 -2.31672,2.28356 -2.27132,2.4594 -2.27131,2.45931 -1.46815,1.71717 -1.46815,1.71717 -1.90268,2.41098 -1.90266,2.41097 -1.5185,2.10804 -1.51849,2.10803 -1.681636,2.5765 -1.681623,2.57656 -0.476163,0.38642 -0.476163,0.3864 -0.877392,0.0782 L 94.251272,190 Z"
       id="path214" /></g></svg>
