<?xml version="1.0" encoding="UTF-8" standalone="no"?>
<!-- Created with Inkscape (http://www.inkscape.org/) -->

<svg
   width="99.999992mm"
   height="90mm"
   viewBox="0 0 99.999992 90"
   version="1.1"
   id="svg5"
   xml:space="preserve"
   inkscape:version="1.2.1 (9c6d41e410, 2022-07-14, custom)"
   sodipodi:docname="hearts.svg"
   xmlns:inkscape="http://www.inkscape.org/namespaces/inkscape"
   xmlns:sodipodi="http://sodipodi.sourceforge.net/DTD/sodipodi-0.dtd"
   xmlns="http://www.w3.org/2000/svg"
   xmlns:svg="http://www.w3.org/2000/svg"><sodipodi:namedview
     id="namedview7"
     pagecolor="#ffffff"
     bordercolor="#000000"
     borderopacity="0.25"
     inkscape:showpageshadow="2"
     inkscape:pageopacity="0.0"
     inkscape:pagecheckerboard="0"
     inkscape:deskcolor="#d1d1d1"
     inkscape:document-units="mm"
     showgrid="false"
     inkscape:zoom="0.74297138"
     inkscape:cx="-39.032459"
     inkscape:cy="183.04877"
     inkscape:window-width="1920"
     inkscape:window-height="1015"
     inkscape:window-x="1920"
     inkscape:window-y="0"
     inkscape:window-maximized="1"
     inkscape:current-layer="layer1" /><defs
     id="defs2" /><g
     inkscape:label="Layer 1"
     inkscape:groupmode="layer"
     id="layer1"
     transform="translate(-50,-100.02111)"><path
       style="fill:#ff2a2a;stroke:none;stroke-width:0.198087"
       d="m 73.862954,100.22426 c -17.904324,2.44745 -29.274955,22.62037 -21.239719,39.69138 2.531738,5.37868 6.842966,9.29989 10.887599,13.45976 5.559654,5.7182 11.106262,11.48481 16.599527,17.27673 4.724472,4.98132 9.48547,9.9303 14.261314,14.86601 1.623135,1.67745 3.38573,4.81338 6.055205,4.47809 2.53373,-0.31821 4.40102,-3.55941 6.0558,-5.28166 4.69478,-4.88689 9.52844,-9.6396 14.08004,-14.66512 5.0325,-5.55668 10.40194,-10.89137 15.60847,-16.27226 2.83999,-2.93503 5.98489,-5.72883 8.41862,-9.04014 4.25862,-5.79434 6.06614,-13.11223 5.19793,-20.2901 -0.30021,-2.48102 -0.95533,-4.91744 -1.8583,-7.23212 -1.16627,-2.98967 -2.85699,-5.83847 -4.95554,-8.23657 -8.05259,-9.202494 -22.1092,-11.72592 -32.58554,-5.42177 -2.68589,1.6162 -5.19403,3.65152 -7.28262,6.02737 -0.62836,0.71478 -2.055,2.79832 -3.06951,2.79832 -0.781486,0 -1.651642,-1.27587 -2.145619,-1.79679 -1.745601,-1.84036 -3.443541,-3.66205 -5.471971,-5.19204 -5.248719,-3.95893 -12.032094,-6.060852 -18.555686,-5.16909 z"
       id="path181" /><path
       style="fill:#000000;stroke-width:0.264583"
       id="path179"
       d="" /></g></svg>
