<?xml version="1.0" encoding="UTF-8" standalone="no"?>
<!-- Created with Inkscape (http://www.inkscape.org/) -->

<svg
   width="90mm"
   height="90mm"
   viewBox="0 0 90 90"
   version="1.1"
   id="svg5"
   xml:space="preserve"
   inkscape:version="1.2.1 (9c6d41e410, 2022-07-14, custom)"
   sodipodi:docname="spades.svg"
   xmlns:inkscape="http://www.inkscape.org/namespaces/inkscape"
   xmlns:sodipodi="http://sodipodi.sourceforge.net/DTD/sodipodi-0.dtd"
   xmlns="http://www.w3.org/2000/svg"
   xmlns:svg="http://www.w3.org/2000/svg"><sodipodi:namedview
     id="namedview7"
     pagecolor="#ffffff"
     bordercolor="#000000"
     borderopacity="0.25"
     inkscape:showpageshadow="2"
     inkscape:pageopacity="0.0"
     inkscape:pagecheckerboard="0"
     inkscape:deskcolor="#d1d1d1"
     inkscape:document-units="mm"
     showgrid="false"
     inkscape:zoom="1.0507202"
     inkscape:cx="7.6138253"
     inkscape:cy="113.25565"
     inkscape:window-width="1920"
     inkscape:window-height="1015"
     inkscape:window-x="1920"
     inkscape:window-y="0"
     inkscape:window-maximized="1"
     inkscape:current-layer="layer1" /><defs
     id="defs2" /><g
     inkscape:label="Layer 1"
     inkscape:groupmode="layer"
     id="layer1"
     transform="translate(-50,-100)"><path
       style="fill:#000000;stroke-width:0.183125"
       d="m 79.870393,189.59544 0.229689,-0.39517 0.608283,-0.88477 0.608283,-0.88475 1.066502,-1.84559 1.0665,-1.8456 1.137213,-2.37279 1.137213,-2.37294 1.247301,-3.07603 1.247301,-3.07589 0.880137,-2.63661 0.880137,-2.63647 0.101013,-0.30751 0.101014,-0.30885 -1.554867,1.02637 -1.554867,1.02637 -2.035458,0.98052 -2.035467,0.98053 -1.717103,0.52465 -1.717101,0.52465 -1.473264,0.21849 -1.473255,0.21849 -3.010284,-0.0944 -3.010293,-0.0944 -1.42722,-0.29132 -1.42722,-0.29133 -1.529973,-0.44507 -1.529946,-0.44509 -1.519362,-0.69054 -1.519353,-0.69054 -1.558881,-0.96569 -1.558863,-0.96569 -1.36647,-1.23946 -1.366468,-1.23948 -1.020094,-1.25835 -1.020093,-1.25836 -0.869306,-1.49397 -0.869303,-1.49411 -0.669329,-1.84559 -0.669325,-1.84559 -0.33891,-1.66971 L 50,152.46398 l 0.01102,-3.07603 0.01103,-3.07589 0.333638,-1.66904 0.333639,-1.6689 0.676793,-1.93434 0.676793,-1.93433 1.043078,-1.93016 1.04308,-1.93014 1.053909,-1.48953 1.053912,-1.48967 1.100905,-1.32578 1.100906,-1.32579 1.895544,-1.93434 1.895535,-1.93434 2.276604,-1.93378 2.276604,-1.9338 2.003301,-1.59271 2.003274,-1.5927 4.483557,-3.40619 4.483539,-3.40605 2.194075,-1.75496 2.194083,-1.75495 2.14767,-1.85773 2.147679,-1.85773 1.858896,-1.91491 1.858896,-1.91477 0.953919,-0.41271 L 94.06578,100 h 0.858474 0.85862 l 0.953928,0.41271 0.953919,0.41271 1.858788,1.91477 1.858951,1.91491 2.14764,1.85773 2.14779,1.85773 2.19406,1.75737 2.19404,1.75726 4.48355,3.40295 4.48356,3.40282 2.76645,2.20057 2.76647,2.20071 2.76632,2.55797 2.76646,2.55813 1.60861,1.84545 1.60846,1.84558 1.18728,1.66973 1.18728,1.66984 1.04088,1.93353 1.04089,1.93339 0.49921,1.40617 0.49921,1.40617 0.37478,1.49399 0.37478,1.4941 0.22691,1.8456 0.22691,1.84558 -0.10249,2.02132 -0.10249,2.02133 -0.30744,1.58191 -0.30742,1.58192 -0.66903,1.84559 -0.66904,1.84558 -0.86959,1.49412 -0.8696,1.49397 -1.02039,1.25836 -1.0204,1.25835 -1.36587,1.23947 -1.36588,1.23947 -1.55884,0.96569 -1.55883,0.96568 -1.51931,0.69055 -1.51945,0.69053 -1.55021,0.45048 -1.55018,0.45047 -1.59778,0.31696 -1.59778,0.31694 h -3.62508 -3.62493 l -1.52634,-0.38573 -1.52633,-0.38573 -1.43031,-0.54353 -1.43029,-0.54354 -1.83289,-0.9549 -1.83274,-0.95489 -1.15361,-0.78225 -1.153608,-0.78226 0.382098,1.26104 0.38209,1.26106 0.95598,2.63662 0.95597,2.63647 1.4259,3.3397 1.42591,3.33956 1.57948,2.90029 1.57962,2.90016 0.8813,1.30556 0.88132,1.30556 -0.0439,0.0405 -0.0439,0.0405 -2.28599,-0.32099 -2.28615,-0.321 -2.48025,-0.23872 -2.48026,-0.23873 -5.914373,0.005 -5.914467,0.005 -2.098683,0.22659 -2.098692,0.22657 -2.003274,0.25357 -2.003286,0.25356 -0.439335,0.0944 -0.439344,0.0944 0.229698,-0.39517 z"
       id="path179" /></g></svg>
